<svg xmlns="http://www.w3.org/2000/svg" xmlns:xlink="http://www.w3.org/1999/xlink" width="100" zoomAndPan="magnify" viewBox="0 0 75 60" height="80" preserveAspectRatio="xMidYMid meet" version="1.0"><defs><clipPath id="50b6288aca"><path d="M 8.101562 1.085938 L 24 1.085938 L 24 17 L 8.101562 17 Z M 8.101562 1.085938 " clip-rule="nonzero"/></clipPath><clipPath id="0f8d8c97a3"><path d="M 50 1.085938 L 65.851562 1.085938 L 65.851562 17 L 50 17 Z M 50 1.085938 " clip-rule="nonzero"/></clipPath><clipPath id="7e774de9a1"><path d="M 29 1.085938 L 45 1.085938 L 45 17 L 29 17 Z M 29 1.085938 " clip-rule="nonzero"/></clipPath><clipPath id="e5649d51a8"><path d="M 8.101562 22 L 24 22 L 24 38 L 8.101562 38 Z M 8.101562 22 " clip-rule="nonzero"/></clipPath><clipPath id="b61986c733"><path d="M 50 22 L 65.851562 22 L 65.851562 38 L 50 38 Z M 50 22 " clip-rule="nonzero"/></clipPath><clipPath id="4c0d4d6b36"><path d="M 8.101562 43 L 24 43 L 24 58.835938 L 8.101562 58.835938 Z M 8.101562 43 " clip-rule="nonzero"/></clipPath><clipPath id="064dbc7381"><path d="M 50 43 L 65.851562 43 L 65.851562 58.835938 L 50 58.835938 Z M 50 43 " clip-rule="nonzero"/></clipPath><clipPath id="ceab5da1c9"><path d="M 29 43 L 45 43 L 45 58.835938 L 29 58.835938 Z M 29 43 " clip-rule="nonzero"/></clipPath></defs><g clip-path="url(#50b6288aca)"><path fill="#000000" d="M 10.023438 1.085938 L 21.574219 1.085938 C 21.832031 1.085938 22.074219 1.136719 22.3125 1.234375 C 22.546875 1.332031 22.753906 1.472656 22.9375 1.652344 C 23.117188 1.832031 23.253906 2.039062 23.351562 2.277344 C 23.449219 2.511719 23.5 2.757812 23.5 3.011719 L 23.5 14.5625 C 23.5 14.816406 23.449219 15.0625 23.351562 15.300781 C 23.253906 15.535156 23.117188 15.742188 22.9375 15.921875 C 22.753906 16.105469 22.546875 16.242188 22.3125 16.339844 C 22.074219 16.4375 21.832031 16.488281 21.574219 16.488281 L 10.023438 16.488281 C 9.769531 16.488281 9.523438 16.4375 9.289062 16.339844 C 9.050781 16.242188 8.84375 16.105469 8.664062 15.921875 C 8.484375 15.742188 8.34375 15.535156 8.246094 15.300781 C 8.148438 15.0625 8.101562 14.816406 8.101562 14.5625 L 8.101562 3.011719 C 8.101562 2.757812 8.148438 2.511719 8.246094 2.277344 C 8.34375 2.039062 8.484375 1.832031 8.664062 1.652344 C 8.84375 1.472656 9.050781 1.332031 9.289062 1.234375 C 9.523438 1.136719 9.769531 1.085938 10.023438 1.085938 Z M 10.023438 1.085938 " fill-opacity="1" fill-rule="nonzero"/></g><g clip-path="url(#0f8d8c97a3)"><path fill="#000000" d="M 52.375 1.085938 L 63.925781 1.085938 C 64.179688 1.085938 64.425781 1.136719 64.660156 1.234375 C 64.898438 1.332031 65.105469 1.472656 65.285156 1.652344 C 65.464844 1.832031 65.605469 2.039062 65.703125 2.277344 C 65.800781 2.511719 65.851562 2.757812 65.851562 3.011719 L 65.851562 14.5625 C 65.851562 14.816406 65.800781 15.0625 65.703125 15.300781 C 65.605469 15.535156 65.464844 15.742188 65.285156 15.921875 C 65.105469 16.105469 64.898438 16.242188 64.660156 16.339844 C 64.425781 16.4375 64.179688 16.488281 63.925781 16.488281 L 52.375 16.488281 C 52.121094 16.488281 51.875 16.4375 51.636719 16.339844 C 51.402344 16.242188 51.195312 16.105469 51.015625 15.921875 C 50.832031 15.742188 50.695312 15.535156 50.597656 15.300781 C 50.5 15.0625 50.449219 14.816406 50.449219 14.5625 L 50.449219 3.011719 C 50.449219 2.757812 50.5 2.511719 50.597656 2.277344 C 50.695312 2.039062 50.832031 1.832031 51.015625 1.652344 C 51.195312 1.472656 51.402344 1.332031 51.636719 1.234375 C 51.875 1.136719 52.121094 1.085938 52.375 1.085938 Z M 52.375 1.085938 " fill-opacity="1" fill-rule="nonzero"/></g><g clip-path="url(#7e774de9a1)"><path fill="#000000" d="M 31.199219 1.085938 L 42.75 1.085938 C 43.003906 1.085938 43.25 1.136719 43.488281 1.234375 C 43.722656 1.332031 43.929688 1.472656 44.109375 1.652344 C 44.292969 1.832031 44.429688 2.039062 44.527344 2.277344 C 44.625 2.511719 44.675781 2.757812 44.675781 3.011719 L 44.675781 14.5625 C 44.675781 14.816406 44.625 15.0625 44.527344 15.300781 C 44.429688 15.535156 44.292969 15.742188 44.109375 15.921875 C 43.929688 16.105469 43.722656 16.242188 43.488281 16.339844 C 43.25 16.4375 43.003906 16.488281 42.75 16.488281 L 31.199219 16.488281 C 30.945312 16.488281 30.699219 16.4375 30.464844 16.339844 C 30.226562 16.242188 30.019531 16.105469 29.839844 15.921875 C 29.660156 15.742188 29.519531 15.535156 29.421875 15.300781 C 29.324219 15.0625 29.273438 14.816406 29.273438 14.5625 L 29.273438 3.011719 C 29.273438 2.757812 29.324219 2.511719 29.421875 2.277344 C 29.519531 2.039062 29.660156 1.832031 29.839844 1.652344 C 30.019531 1.472656 30.226562 1.332031 30.464844 1.234375 C 30.699219 1.136719 30.945312 1.085938 31.199219 1.085938 Z M 31.199219 1.085938 " fill-opacity="1" fill-rule="nonzero"/></g><g clip-path="url(#e5649d51a8)"><path fill="#000000" d="M 10.023438 22.261719 L 21.574219 22.261719 C 21.832031 22.261719 22.074219 22.3125 22.3125 22.410156 C 22.546875 22.507812 22.753906 22.644531 22.9375 22.828125 C 23.117188 23.007812 23.253906 23.214844 23.351562 23.449219 C 23.449219 23.6875 23.5 23.933594 23.5 24.1875 L 23.5 35.738281 C 23.5 35.992188 23.449219 36.238281 23.351562 36.472656 C 23.253906 36.710938 23.117188 36.917969 22.9375 37.097656 C 22.753906 37.277344 22.546875 37.417969 22.3125 37.515625 C 22.074219 37.613281 21.832031 37.664062 21.574219 37.664062 L 10.023438 37.664062 C 9.769531 37.664062 9.523438 37.613281 9.289062 37.515625 C 9.050781 37.417969 8.84375 37.277344 8.664062 37.097656 C 8.484375 36.917969 8.34375 36.710938 8.246094 36.472656 C 8.148438 36.238281 8.101562 35.992188 8.101562 35.738281 L 8.101562 24.1875 C 8.101562 23.933594 8.148438 23.6875 8.246094 23.449219 C 8.34375 23.214844 8.484375 23.007812 8.664062 22.828125 C 8.84375 22.644531 9.050781 22.507812 9.289062 22.410156 C 9.523438 22.3125 9.769531 22.261719 10.023438 22.261719 Z M 10.023438 22.261719 " fill-opacity="1" fill-rule="nonzero"/></g><g clip-path="url(#b61986c733)"><path fill="#000000" d="M 52.375 22.261719 L 63.925781 22.261719 C 64.179688 22.261719 64.425781 22.3125 64.660156 22.410156 C 64.898438 22.507812 65.105469 22.644531 65.285156 22.828125 C 65.464844 23.007812 65.605469 23.214844 65.703125 23.449219 C 65.800781 23.6875 65.851562 23.933594 65.851562 24.1875 L 65.851562 35.738281 C 65.851562 35.992188 65.800781 36.238281 65.703125 36.472656 C 65.605469 36.710938 65.464844 36.917969 65.285156 37.097656 C 65.105469 37.277344 64.898438 37.417969 64.660156 37.515625 C 64.425781 37.613281 64.179688 37.664062 63.925781 37.664062 L 52.375 37.664062 C 52.121094 37.664062 51.875 37.613281 51.636719 37.515625 C 51.402344 37.417969 51.195312 37.277344 51.015625 37.097656 C 50.832031 36.917969 50.695312 36.710938 50.597656 36.472656 C 50.5 36.238281 50.449219 35.992188 50.449219 35.738281 L 50.449219 24.1875 C 50.449219 23.933594 50.5 23.6875 50.597656 23.449219 C 50.695312 23.214844 50.832031 23.007812 51.015625 22.828125 C 51.195312 22.644531 51.402344 22.507812 51.636719 22.410156 C 51.875 22.3125 52.121094 22.261719 52.375 22.261719 Z M 52.375 22.261719 " fill-opacity="1" fill-rule="nonzero"/></g><path fill="#000000" d="M 31.199219 22.261719 L 42.75 22.261719 C 43.003906 22.261719 43.25 22.3125 43.488281 22.410156 C 43.722656 22.507812 43.929688 22.644531 44.109375 22.828125 C 44.292969 23.007812 44.429688 23.214844 44.527344 23.449219 C 44.625 23.6875 44.675781 23.933594 44.675781 24.1875 L 44.675781 35.738281 C 44.675781 35.992188 44.625 36.238281 44.527344 36.472656 C 44.429688 36.710938 44.292969 36.917969 44.109375 37.097656 C 43.929688 37.277344 43.722656 37.417969 43.488281 37.515625 C 43.25 37.613281 43.003906 37.664062 42.75 37.664062 L 31.199219 37.664062 C 30.945312 37.664062 30.699219 37.613281 30.464844 37.515625 C 30.226562 37.417969 30.019531 37.277344 29.839844 37.097656 C 29.660156 36.917969 29.519531 36.710938 29.421875 36.472656 C 29.324219 36.238281 29.273438 35.992188 29.273438 35.738281 L 29.273438 24.1875 C 29.273438 23.933594 29.324219 23.6875 29.421875 23.449219 C 29.519531 23.214844 29.660156 23.007812 29.839844 22.828125 C 30.019531 22.644531 30.226562 22.507812 30.464844 22.410156 C 30.699219 22.3125 30.945312 22.261719 31.199219 22.261719 Z M 31.199219 22.261719 " fill-opacity="1" fill-rule="nonzero"/><g clip-path="url(#4c0d4d6b36)"><path fill="#000000" d="M 10.023438 43.4375 L 21.574219 43.4375 C 21.832031 43.4375 22.074219 43.488281 22.3125 43.585938 C 22.546875 43.683594 22.753906 43.820312 22.9375 44 C 23.117188 44.183594 23.253906 44.390625 23.351562 44.625 C 23.449219 44.863281 23.5 45.105469 23.5 45.363281 L 23.5 56.914062 C 23.5 57.167969 23.449219 57.414062 23.351562 57.648438 C 23.253906 57.886719 23.117188 58.09375 22.9375 58.273438 C 22.753906 58.453125 22.546875 58.59375 22.3125 58.691406 C 22.074219 58.789062 21.832031 58.835938 21.574219 58.835938 L 10.023438 58.835938 C 9.769531 58.835938 9.523438 58.789062 9.289062 58.691406 C 9.050781 58.59375 8.84375 58.453125 8.664062 58.273438 C 8.484375 58.09375 8.34375 57.886719 8.246094 57.648438 C 8.148438 57.414062 8.101562 57.167969 8.101562 56.914062 L 8.101562 45.363281 C 8.101562 45.105469 8.148438 44.863281 8.246094 44.625 C 8.34375 44.390625 8.484375 44.183594 8.664062 44 C 8.84375 43.820312 9.050781 43.683594 9.289062 43.585938 C 9.523438 43.488281 9.769531 43.4375 10.023438 43.4375 Z M 10.023438 43.4375 " fill-opacity="1" fill-rule="nonzero"/></g><g clip-path="url(#064dbc7381)"><path fill="#000000" d="M 52.375 43.4375 L 63.925781 43.4375 C 64.179688 43.4375 64.425781 43.488281 64.660156 43.585938 C 64.898438 43.683594 65.105469 43.820312 65.285156 44 C 65.464844 44.183594 65.605469 44.390625 65.703125 44.625 C 65.800781 44.863281 65.851562 45.105469 65.851562 45.363281 L 65.851562 56.914062 C 65.851562 57.167969 65.800781 57.414062 65.703125 57.648438 C 65.605469 57.886719 65.464844 58.09375 65.285156 58.273438 C 65.105469 58.453125 64.898438 58.59375 64.660156 58.691406 C 64.425781 58.789062 64.179688 58.835938 63.925781 58.835938 L 52.375 58.835938 C 52.121094 58.835938 51.875 58.789062 51.636719 58.691406 C 51.402344 58.59375 51.195312 58.453125 51.015625 58.273438 C 50.832031 58.09375 50.695312 57.886719 50.597656 57.648438 C 50.5 57.414062 50.449219 57.167969 50.449219 56.914062 L 50.449219 45.363281 C 50.449219 45.105469 50.5 44.863281 50.597656 44.625 C 50.695312 44.390625 50.832031 44.183594 51.015625 44 C 51.195312 43.820312 51.402344 43.683594 51.636719 43.585938 C 51.875 43.488281 52.121094 43.4375 52.375 43.4375 Z M 52.375 43.4375 " fill-opacity="1" fill-rule="nonzero"/></g><g clip-path="url(#ceab5da1c9)"><path fill="#000000" d="M 31.199219 43.4375 L 42.75 43.4375 C 43.003906 43.4375 43.25 43.488281 43.488281 43.585938 C 43.722656 43.683594 43.929688 43.820312 44.109375 44 C 44.292969 44.183594 44.429688 44.390625 44.527344 44.625 C 44.625 44.863281 44.675781 45.105469 44.675781 45.363281 L 44.675781 56.914062 C 44.675781 57.167969 44.625 57.414062 44.527344 57.648438 C 44.429688 57.886719 44.292969 58.09375 44.109375 58.273438 C 43.929688 58.453125 43.722656 58.59375 43.488281 58.691406 C 43.25 58.789062 43.003906 58.835938 42.75 58.835938 L 31.199219 58.835938 C 30.945312 58.835938 30.699219 58.789062 30.464844 58.691406 C 30.226562 58.59375 30.019531 58.453125 29.839844 58.273438 C 29.660156 58.09375 29.519531 57.886719 29.421875 57.648438 C 29.324219 57.414062 29.273438 57.167969 29.273438 56.914062 L 29.273438 45.363281 C 29.273438 45.105469 29.324219 44.863281 29.421875 44.625 C 29.519531 44.390625 29.660156 44.183594 29.839844 44 C 30.019531 43.820312 30.226562 43.683594 30.464844 43.585938 C 30.699219 43.488281 30.945312 43.4375 31.199219 43.4375 Z M 31.199219 43.4375 " fill-opacity="1" fill-rule="nonzero"/></g></svg>