<svg xmlns="http://www.w3.org/2000/svg" xmlns:xlink="http://www.w3.org/1999/xlink" width="100" zoomAndPan="magnify" viewBox="0 0 75 60" height="80" preserveAspectRatio="xMidYMid meet" version="1.0"><defs><clipPath id="f49621131b"><path d="M 3.832031 2.757812 L 71.332031 2.757812 L 71.332031 57.507812 L 3.832031 57.507812 Z M 3.832031 2.757812 " clip-rule="nonzero"/></clipPath></defs><g clip-path="url(#f49621131b)"><path fill="#000000" d="M 9.304688 24.921875 C 6.277344 24.921875 3.832031 27.375 3.832031 30.410156 C 3.832031 33.445312 6.277344 35.894531 9.304688 35.894531 C 12.332031 35.894531 14.777344 33.445312 14.777344 30.410156 C 14.777344 27.375 12.332031 24.921875 9.304688 24.921875 Z M 9.304688 2.980469 C 6.277344 2.980469 3.832031 5.429688 3.832031 8.464844 C 3.832031 11.5 6.277344 13.953125 9.304688 13.953125 C 12.332031 13.953125 14.777344 11.5 14.777344 8.464844 C 14.777344 5.429688 12.332031 2.980469 9.304688 2.980469 Z M 9.304688 47.46875 C 6.625 47.46875 4.433594 49.644531 4.433594 52.351562 C 4.433594 55.058594 6.625 57.234375 9.304688 57.234375 C 11.988281 57.234375 14.175781 55.058594 14.175781 52.351562 C 14.175781 49.644531 11.988281 47.46875 9.304688 47.46875 Z M 20.25 56.007812 L 71.332031 56.007812 L 71.332031 48.695312 L 20.25 48.695312 Z M 20.25 34.066406 L 71.332031 34.066406 L 71.332031 26.75 L 20.25 26.75 Z M 20.25 4.808594 L 20.25 12.125 L 71.332031 12.125 L 71.332031 4.808594 Z M 20.25 4.808594 " fill-opacity="1" fill-rule="nonzero"/></g></svg>